<?xml version="1.0" encoding="UTF-8"?>
<svg id="Layer_1" xmlns="http://www.w3.org/2000/svg" version="1.1" viewBox="0 0 20 20">
  <!-- Generator: Adobe Illustrator 30.2.1, SVG Export Plug-In . SVG Version: 2.1.1 Build 1)  -->
  <defs>
    <style>
      .st0 {
        fill: red;
      }
    </style>
  </defs>
  <path class="st0" d="M10,1.81h4.1c.96,0,1.45.24,1.81.36.48.24.84.36,1.2.72.36.36.6.72.72,1.2.12.36.24.84.36,1.81v8.19c0,.96-.24,1.45-.36,1.81-.24.48-.36.84-.72,1.2-.36.36-.72.6-1.2.72-.36.12-.84.24-1.81.36H5.9c-.96,0-1.45-.24-1.81-.36-.48-.24-.84-.36-1.2-.72-.36-.36-.6-.72-.72-1.2-.12-.36-.24-.84-.36-1.81V5.9c0-.96.24-1.45.36-1.81.24-.48.36-.84.72-1.2.36-.36.72-.6,1.2-.72.36-.12.84-.24,1.81-.36h4.1ZM10,0h-4.1C4.82,0,4.1.24,3.49.48c-.6.24-1.2.6-1.81,1.2-.6.6-.84,1.08-1.2,1.81-.24.6-.36,1.33-.48,2.41v8.19c0,1.08.24,1.81.48,2.41.24.6.6,1.2,1.2,1.81.6.6,1.08.84,1.81,1.2.6.24,1.33.36,2.41.48h8.19c1.08,0,1.81-.24,2.41-.48.6-.24,1.2-.6,1.81-1.2.6-.6.84-1.08,1.2-1.81.24-.6.36-1.33.48-2.41V5.9c0-1.08-.24-1.81-.48-2.41-.24-.6-.6-1.2-1.2-1.81-.6-.6-1.08-.84-1.81-1.2C15.9.24,15.18.12,14.1,0h-4.1Z"/>
  <path class="st0" d="M10,4.82c-2.89,0-5.18,2.29-5.18,5.18s2.29,5.18,5.18,5.18,5.18-2.29,5.18-5.18-2.29-5.18-5.18-5.18ZM10,13.37c-1.81,0-3.37-1.45-3.37-3.37,0-1.81,1.45-3.37,3.37-3.37,1.81,0,3.37,1.45,3.37,3.37,0,1.81-1.57,3.37-3.37,3.37Z"/>
  <path class="st0" d="M15.3,5.9c.67,0,1.2-.54,1.2-1.2s-.54-1.2-1.2-1.2-1.2.54-1.2,1.2.54,1.2,1.2,1.2Z"/>
</svg>