<?xml version="1.0" encoding="UTF-8"?>
<svg id="Layer_1" xmlns="http://www.w3.org/2000/svg" version="1.1" viewBox="0 0 15 15">
  <!-- Generator: Adobe Illustrator 30.2.1, SVG Export Plug-In . SVG Version: 2.1.1 Build 1)  -->
  <defs>
    <style>
      .st0 {
        fill: red;
      }
    </style>
  </defs>
  <path class="st0" d="M15,8.74v5.52h-3.23v-5.18c0-1.28-.47-2.15-1.61-2.15-.87,0-1.41.61-1.61,1.14-.07.2-.13.47-.13.81v5.38h-3.23s.07-8.74,0-9.62h3.23v1.35c.4-.67,1.21-1.61,2.89-1.61,2.09,0,3.7,1.41,3.7,4.37ZM1.82,0C.74,0,0,.74,0,1.68s.67,1.68,1.75,1.68c1.14,0,1.82-.74,1.82-1.68C3.63.67,2.96,0,1.82,0ZM.2,14.26h3.23V4.64H.2v9.62Z"/>
</svg>